<svg viewBox="0 0 512 512" version="1.1" xmlns="http://www.w3.org/2000/svg" xmlns:xlink="http://www.w3.org/1999/xlink">
  <path
    d="M0 0 C3.55781613 2.09723898 6.79801754 4.39766153 10 7 C10.83273437 7.62648438 11.66546875 8.25296875 12.5234375 8.8984375 C21.80303039 16.77291853 29.20045891 30.42492179 30.22119141 42.64892578 C30.33948061 45.66454541 30.37118717 48.66964576 30.375 51.6875 C30.39949219 52.71939453 30.42398437 53.75128906 30.44921875 54.81445312 C30.45308594 55.80767578 30.45695312 56.80089844 30.4609375 57.82421875 C30.46915527 58.72229248 30.47737305 59.62036621 30.48583984 60.5456543 C29.84600931 63.77792382 28.5422235 64.97210086 26 67 C23.421875 67.390625 23.421875 67.390625 20.75 67.25 C19.85796875 67.21390625 18.9659375 67.1778125 18.046875 67.140625 C17.37140625 67.09421875 16.6959375 67.0478125 16 67 C14.82443679 69.35112642 14.86475946 70.94352518 14.75 73.5625 C14.01163718 81.54604804 10.12088957 87.87553431 4 93 C-2.45797052 97.46602284 -7.06508005 99.16735722 -15 99.125 C-15.72445313 99.12886719 -16.44890625 99.13273437 -17.1953125 99.13671875 C-20.39282879 99.13081927 -22.94582607 99.01805798 -26 98 C-25.97905273 99.09989258 -25.95810547 100.19978516 -25.93652344 101.33300781 C-25.86406365 105.41799881 -25.81817885 109.50293314 -25.78027344 113.58837891 C-25.7601715 115.35572872 -25.73288528 117.12301213 -25.69824219 118.89013672 C-25.64965991 121.43213285 -25.62701774 123.97324896 -25.609375 126.515625 C-25.58872986 127.30430969 -25.56808472 128.09299438 -25.54681396 128.90557861 C-25.54536549 132.45560223 -25.71024014 134.58680913 -27.77441406 137.53027344 C-30 139 -30 139 -34 139 C-34 139.66 -34 140.32 -34 141 C-33.38729752 141.17754318 -32.77459503 141.35508636 -32.14332581 141.53800964 C-26.21103217 143.28340204 -20.38941954 145.22027036 -14.58984375 147.36328125 C-13.31132286 147.83497993 -13.31132286 147.83497993 -12.00697327 148.31620789 C-10.22067325 148.97741451 -8.43506973 149.64050566 -6.65014648 150.30541992 C-3.94438019 151.3099457 -1.23310014 152.29850202 1.47851562 153.28710938 C23.98607486 161.59889035 23.98607486 161.59889035 29 171 C30.99591928 176.98775783 31.23883728 184.55047896 29.09375 190.5234375 C25.85859479 195.93610103 20.96574856 200.76159518 15 203 C12.21175242 203.13997227 9.53172884 203.1888913 6.75 203.125 C6.00492187 203.11597656 5.25984375 203.10695312 4.4921875 203.09765625 C2.66131941 203.07418358 0.83061762 203.03831525 -1 203 C0.23229537 221.09589511 0.23229537 221.09589511 3 239 C6.43728111 239 8.74223633 238.53573636 11.97265625 237.57617188 C38.06352078 230.16113812 64.60625615 235.0653699 88.0234375 247.62109375 C110.05348992 260.78231418 125.78490366 282.99885053 132.375 307.625 C138.31826043 332.70957632 134.06790535 359.7894755 120.6875 381.6875 C105.86052768 403.81440398 84.85127775 419.50580278 58.74609375 425.4921875 C32.666954 430.31478802 6.03804051 425.7652831 -16.26904297 411.1953125 C-37.87425764 396.27582999 -51.93665394 374.11868708 -57.3125 348.5 C-61.1231856 321.04826491 -55.64205097 294.73878098 -39.05859375 272.3828125 C-31.75329771 262.97599294 -23.79440465 255.76966204 -14 249 C-14.33 246.69 -14.66 244.38 -15 242 C-18.57534935 242 -21.14221209 245.1773441 -23.8125 247.375 C-25.18670284 248.49056603 -26.56171554 249.60513511 -27.9375 250.71875 C-28.97003906 251.55599609 -28.97003906 251.55599609 -30.0234375 252.41015625 C-33.26864832 255.02043452 -36.57552894 257.54621984 -39.88330078 260.07666016 C-44.50191705 263.61246287 -49.09767086 267.17691449 -53.6875 270.75 C-54.44909424 271.34280762 -55.21068848 271.93561523 -55.99536133 272.54638672 C-57.55345805 273.75934681 -59.11148163 274.97240086 -60.66943359 276.18554688 C-64.44517268 279.12513339 -68.22267744 282.06244872 -72 285 C-73.10879517 285.86250366 -73.10879517 285.86250366 -74.23999023 286.74243164 C-84.00146923 294.33563693 -84.00146923 294.33563693 -87.95727539 297.40014648 C-89.47660925 298.58458298 -90.98895769 299.77803903 -92.49389648 300.98071289 C-95.96085024 303.73761855 -99.37323096 306.28983833 -103.20703125 308.515625 C-110.15456401 312.69354387 -110.15456401 312.69354387 -113.68212891 319.71679688 C-114.55993892 326.47775602 -114.45713531 333.20888688 -114 340 C-113.1028125 340.11214844 -112.205625 340.22429687 -111.28125 340.33984375 C-103.91629846 341.82160186 -98.65255546 346.78514438 -94.2890625 352.6796875 C-90.44306042 359.60249125 -89.49881517 365.44571364 -89.5625 373.25 C-89.54251953 374.13429688 -89.52253906 375.01859375 -89.50195312 375.9296875 C-89.50259766 376.78304688 -89.50324219 377.63640625 -89.50390625 378.515625 C-89.50205322 379.28165039 -89.5002002 380.04767578 -89.49829102 380.83691406 C-90.21438183 383.92429342 -91.54476169 385.02648878 -94 387 C-96.88378906 387.50793457 -96.88378906 387.50793457 -100.265625 387.51757812 C-101.53374023 387.53018677 -102.80185547 387.54279541 -104.10839844 387.55578613 C-105.48893795 387.5486263 -106.86947239 387.54042231 -108.25 387.53125 C-109.66959906 387.53394562 -111.08919631 387.53782863 -112.50878906 387.54284668 C-115.48129894 387.54873858 -118.45332741 387.54018954 -121.42578125 387.52148438 C-125.23258787 387.498694 -129.03826649 387.51181888 -132.84503174 387.53577423 C-135.77563956 387.55024114 -138.70598074 387.54562235 -141.63659668 387.53526306 C-143.03999974 387.53259819 -144.44342715 387.53585717 -145.84680176 387.54518127 C-147.80932135 387.55535941 -149.77192602 387.5370904 -151.734375 387.51757812 C-152.85038086 387.51439575 -153.96638672 387.51121338 -155.11621094 387.50793457 C-158.66416715 386.88301729 -159.81797645 385.81440866 -162 383 C-162.86379298 380.40862107 -163.19950141 378.57226263 -163.38891602 375.89575195 C-163.44890274 375.07512772 -163.50888947 374.25450348 -163.57069397 373.40901184 C-163.63115402 372.52767075 -163.69161407 371.64632965 -163.75390625 370.73828125 C-163.81907944 369.83248825 -163.88425262 368.92669525 -163.95140076 367.99345398 C-164.15874417 365.10004892 -164.36068542 362.20629544 -164.5625 359.3125 C-164.70211837 357.35088612 -164.84208801 355.3892972 -164.98242188 353.42773438 C-165.3256914 348.61876982 -165.66411645 343.80948584 -166 339 C-167.32 339 -168.64 339 -170 339 C-170.03867187 339.93005859 -170.03867187 339.93005859 -170.078125 340.87890625 C-171.71618052 366.45490944 -184.86473162 387.88460181 -203.25 405.125 C-225.4306149 424.19187173 -251.69239093 428.96843843 -280 427 C-301.74109584 424.57147334 -320.69145606 413.07755083 -336 398 C-336.80566406 397.21882813 -337.61132812 396.43765625 -338.44140625 395.6328125 C-355.99919613 377.49485217 -363.24262485 351.72192401 -363 327 C-362.13647557 304.34670339 -353.43691908 282.61033353 -338 266 C-337.195625 265.12730469 -336.39125 264.25460937 -335.5625 263.35546875 C-320.79702785 247.96707824 -298.65131481 236.10719751 -277.01831055 234.82299805 C-255.5373324 234.40265615 -234.68684231 235.32297294 -216.296875 247.83984375 C-215.53890625 248.22269531 -214.7809375 248.60554687 -214 249 C-210.89397778 247.85796678 -209.18952826 246.34342987 -207.203125 243.7421875 C-206.71972656 243.11699219 -206.23632812 242.49179687 -205.73828125 241.84765625 C-205.24714844 241.19667969 -204.75601563 240.54570312 -204.25 239.875 C-203.74339844 239.21628906 -203.23679688 238.55757812 -202.71484375 237.87890625 C-201.46969142 236.25785888 -200.23391431 234.62961787 -199 233 C-203.08884309 225.64996484 -207.32624916 218.43261541 -211.80810547 211.31518555 C-220.27104554 197.85874447 -228.21959313 184.60821451 -232 169 C-232.17515137 168.29431885 -232.35030273 167.5886377 -232.53076172 166.86157227 C-235.89828999 152.02011517 -236.63204781 132.99174977 -230 119 C-229.59910156 118.08089844 -229.19820312 117.16179687 -228.78515625 116.21484375 C-220.36168701 98.85517236 -203.94175683 89.12862476 -188.37719727 78.91870117 C-186.32897082 77.57331889 -184.28649032 76.21951579 -182.24414062 74.86523438 C-170.007809 66.7950738 -157.53938531 58.74843643 -143.6875 53.75 C-142.812146 53.42628418 -141.93679199 53.10256836 -141.03491211 52.76904297 C-135.11410231 50.6316088 -129.14055902 48.76075413 -123.0625 47.125 C-122.35504639 46.93389648 -121.64759277 46.74279297 -120.91870117 46.54589844 C-109.22623375 43.59702577 -97.46452848 42.63784253 -85.4375 42.625 C-84.22642578 42.60050781 -83.01535156 42.57601562 -81.76757812 42.55078125 C-73.20801844 42.52327329 -66.02219673 44.04061506 -58 47 C-56.2904138 44.6384275 -54.60830126 42.2637761 -52.9375 39.875 C-52.45216797 39.20984375 -51.96683594 38.5446875 -51.46679688 37.859375 C-48.55297618 33.65891966 -48.55297618 33.65891966 -48.12890625 28.6328125 C-48.91036307 26.05958571 -48.91036307 26.05958571 -50 24 C-50.71516579 16.30685946 -50.89304849 9.45923657 -46.56640625 2.83984375 C-35.48398376 -10.17716621 -13.84399575 -6.59237893 0 0 Z M-33 14 C-33.75 17 -33.75 17 -33 20 C-29.90043188 22.913296 -26.3875921 24.10994144 -22.4375 25.5625 C-10.39480089 30.16155485 0.85489319 36.56785059 12 43 C11.60447656 33.90296093 6.64905231 27.24435172 0.1875 21.125 C-7.86076656 14.34436532 -23.47943167 6.23924098 -33 14 Z M-33 40 C-35.97 44.95 -35.97 44.95 -39 50 C-34.82918558 49.16583712 -31.96469139 48.21232487 -28.1875 46.4375 C-27.21167969 45.98246094 -26.23585938 45.52742188 -25.23046875 45.05859375 C-24.49441406 44.70925781 -23.75835937 44.35992187 -23 44 C-26.3384591 41.29294512 -28.70374369 40.48821094 -33 40 Z M-10 55.046875 C-10.80074951 55.47822754 -11.60149902 55.90958008 -12.42651367 56.35400391 C-13.27576416 56.81468262 -14.12501465 57.27536133 -15 57.75 C-21.52607358 61.24569484 -27.98183768 64.58243252 -35 67 C-32.25539861 73.63278669 -29.20008626 77.32068803 -23 81 C-18.64313842 82.45228719 -14.54884895 82.63669736 -10 82 C-6.09057424 80.00945735 -3.64775836 77.03112313 -2 73 C-1.62146976 70.5483252 -1.62146976 70.5483252 -1.5 68 C-1.28220879 64.42822421 -0.63257211 62.15981699 1 59 C1 58.01 1 57.02 1 56 C-3.52638808 52.78388216 -5.23778005 52.45103993 -10 55.046875 Z M-94.3125 59.625 C-95.25818848 59.71491211 -96.20387695 59.80482422 -97.17822266 59.89746094 C-127.81699469 63.16112307 -153.84094089 75.91639532 -178.96679688 93.16088867 C-181.41517328 94.84005193 -183.87465645 96.50193311 -186.3359375 98.16210938 C-187.91993297 99.23860969 -189.50329154 100.3160479 -191.0859375 101.39453125 C-191.80985687 101.88419876 -192.53377625 102.37386627 -193.27963257 102.87837219 C-197.26882568 105.62686229 -200.69353598 108.4556348 -204 112 C-203.32348389 112.5261792 -203.32348389 112.5261792 -202.63330078 113.06298828 C-201.25959848 114.1314234 -199.88590106 115.19986479 -198.51220703 116.26831055 C-196.90644774 117.5172162 -195.30065285 118.76607608 -193.69482422 120.01489258 C-189.44155515 123.32266863 -185.18887414 126.63119496 -180.9375 129.94140625 C-180.13038574 130.56966309 -179.32327148 131.19791992 -178.49169922 131.84521484 C-176.94102458 133.05229044 -175.390561 134.25963724 -173.84033203 135.46728516 C-173.13247559 136.01819824 -172.42461914 136.56911133 -171.6953125 137.13671875 C-171.07672363 137.61842529 -170.45813477 138.10013184 -169.82080078 138.59643555 C-167.89354226 140.08206296 -165.94972887 141.54402665 -164 143 C-160.12308893 141.42584818 -157.80334323 138.93840506 -154.9375 135.9375 C-138.92810944 119.57640222 -113.61389195 100.38957782 -89.75 99.5 C-85.27526507 100.09663132 -85.27526507 100.09663132 -83 103 C-82.0168457 105.17651367 -82.0168457 105.17651367 -81.17578125 107.66796875 C-80.76066284 108.8748938 -80.76066284 108.8748938 -80.3371582 110.10620117 C-79.999021 111.12302979 -79.66088379 112.1398584 -79.3125 113.1875 C-78.219375 116.425625 -77.12625 119.66375 -76 123 C-64.78 123 -53.56 123 -42 123 C-41.03452812 94.26284101 -41.03452812 94.26284101 -54.7578125 70.04296875 C-66.05345059 59.75095007 -79.67534386 58.22132742 -94.3125 59.625 Z M-135 140 C-130.72568061 144.60378012 -125.89790808 148.14713064 -120.8125 151.8125 C-119.10582183 153.05859709 -117.40008345 154.30598242 -115.6953125 155.5546875 C-114.88223633 156.14991211 -114.06916016 156.74513672 -113.23144531 157.35839844 C-103.00006609 164.88529055 -94.56682512 171.37892648 -91 184 C-91 190.27 -91 196.54 -91 203 C-66.91 203 -42.82 203 -18 203 C-18.33 201.35 -18.66 199.7 -19 198 C-20.05782684 197.64961166 -20.05782684 197.64961166 -21.13702393 197.29214478 C-27.78848026 195.08836029 -34.43896619 192.88167721 -41.08838272 190.67174721 C-44.50679928 189.53575149 -47.9255783 188.40087317 -51.34521484 187.26855469 C-54.6463963 186.17541356 -57.94658708 185.0793293 -61.24611664 183.98121262 C-63.11548854 183.35991674 -64.98586936 182.74165918 -66.85626221 182.1234436 C-68.56758331 181.55307877 -68.56758331 181.55307877 -70.31347656 180.97119141 C-71.31719299 180.63809967 -72.32090942 180.30500793 -73.3550415 179.96182251 C-79.66668312 177.66663376 -79.66668312 177.66663376 -81 175 C-81.15676775 172.30344554 -81.25836315 169.62870023 -81.31640625 166.9296875 C-81.33718735 166.13345978 -81.35796844 165.33723206 -81.37937927 164.51687622 C-81.44484149 161.96967315 -81.50374415 159.42236575 -81.5625 156.875 C-81.6056884 155.14972873 -81.64930279 153.42446807 -81.69335938 151.69921875 C-81.80051945 147.46625315 -81.90179623 143.23318247 -82 139 C-83.42735474 138.61606079 -83.42735474 138.61606079 -84.88354492 138.22436523 C-88 137 -88 137 -89.21606445 135.35180664 C-89.429646 134.71106201 -89.64322754 134.07031738 -89.86328125 133.41015625 C-90.23356445 132.35731445 -90.23356445 132.35731445 -90.61132812 131.28320312 C-90.84271484 130.55037109 -91.07410156 129.81753906 -91.3125 129.0625 C-91.56322266 128.33353516 -91.81394531 127.60457031 -92.07226562 126.85351562 C-92.73682604 124.90972094 -93.37011627 122.95530683 -94 121 C-94.495 119.515 -94.495 119.515 -95 118 C-108.98120467 118 -124.85055333 131.33132367 -135 140 Z M-214 126 C-216.65217534 132.61073647 -217.51782417 138.46259631 -217.4375 145.5625 C-217.42847656 146.52559082 -217.41945312 147.48868164 -217.41015625 148.48095703 C-216.90484726 169.58813484 -207.17946486 185.96181264 -196.3203125 203.52734375 C-195.92086426 204.17437256 -195.52141602 204.82140137 -195.10986328 205.48803711 C-194.05906696 207.160628 -194.05906696 207.160628 -192 208 C-189.25829183 207.44559934 -186.62725836 206.8113802 -183.9375 206.0625 C-182.7474939 205.73221802 -182.7474939 205.73221802 -181.53344727 205.39526367 C-175.60519973 203.65972396 -170.02201734 201.44527826 -164.4375 198.8125 C-163.3400647 198.29538452 -163.3400647 198.29538452 -162.22045898 197.76782227 C-158.45287391 196.11131754 -158.45287391 196.11131754 -156 193 C-156.66848112 190.59799682 -157.40678143 188.31218178 -158.25390625 185.97265625 C-158.50536407 185.27223206 -158.7568219 184.57180786 -159.01589966 183.85015869 C-165.8412014 163.84397602 -165.8412014 163.84397602 -181.03564453 150.17138672 C-185.00919926 147.80187198 -188.51975542 144.76107928 -192.125 141.875 C-193.64470769 140.68958937 -195.16679456 139.50722169 -196.69140625 138.328125 C-197.41859863 137.76544922 -198.14579102 137.20277344 -198.89501953 136.62304688 C-206.06988734 130.00085447 -206.06988734 130.00085447 -214 126 Z M-66 139 C-66 147.58 -66 156.16 -66 165 C-58.42313936 167.58628176 -50.84286089 170.16178677 -43.25628471 172.71940422 C-39.73226441 173.90789234 -36.20984899 175.1007178 -32.69091797 176.30419922 C-29.28395136 177.46919745 -25.87301422 178.62183004 -22.45920181 179.76660538 C-20.54803716 180.41086053 -18.64099242 181.06729714 -16.73410034 181.72409058 C-2.99022495 186.9095521 -2.99022495 186.9095521 10.83401489 185.65011597 C13.06197802 184.17716646 13.06197802 184.17716646 14.0625 182.125 C13.9642816 178.78557438 12.24312291 177.38732697 10 175 C7.18803176 173.49346343 7.18803176 173.49346343 3.9609375 172.45703125 C2.75219971 172.02777344 1.54346191 171.59851563 0.2980957 171.15625 C-0.34187347 170.93710938 -0.98184265 170.71796875 -1.64120483 170.4921875 C-3.64745487 169.80480652 -5.64617249 169.09874518 -7.64379883 168.38671875 C-10.39486019 167.40629748 -13.14772408 166.43123347 -15.90185547 165.45947266 C-22.19734999 163.22784482 -28.44533193 160.87642613 -34.6875 158.5 C-35.78465332 158.09112549 -36.88180664 157.68225098 -38.01220703 157.26098633 C-39.0226709 156.87579834 -40.03313477 156.49061035 -41.07421875 156.09375 C-41.95682373 155.76052734 -42.83942871 155.42730469 -43.7487793 155.08398438 C-46.06158122 153.97034805 -47.41521062 153.00864311 -49 151 C-49.7011324 147.00193968 -49.78152505 143.063634 -50 139 C-55.28 139 -60.56 139 -66 139 Z M-150.265625 155.07421875 C-152.40646225 157.93357768 -152.40646225 157.93357768 -151.296875 161.33203125 C-150.78640625 162.48058594 -150.2759375 163.62914062 -149.75 164.8125 C-149.24984375 165.97394531 -148.7496875 167.13539063 -148.234375 168.33203125 C-147.82703125 169.21246094 -147.4196875 170.09289062 -147 171 C-143.88271632 169.63491499 -141.91336262 168.13080302 -139.6875 165.5625 C-139.15511719 164.96566406 -138.62273437 164.36882812 -138.07421875 163.75390625 C-137.71972656 163.17511719 -137.36523438 162.59632813 -137 162 C-138.1487362 158.55379139 -139.07581642 157.90830804 -141.9375 155.8125 C-142.64777344 155.28269531 -143.35804688 154.75289062 -144.08984375 154.20703125 C-147.11298568 152.2967023 -147.59749574 152.63150041 -150.265625 155.07421875 Z M-123 171 C-123.97615917 172.018173 -124.91444034 173.07272708 -125.8359375 174.140625 C-126.69058594 175.12869141 -126.69058594 175.12869141 -127.5625 176.13671875 C-128.160625 176.83410156 -128.75875 177.53148437 -129.375 178.25 C-129.96539062 178.93191406 -130.55578125 179.61382812 -131.1640625 180.31640625 C-135.28346106 185.00231727 -135.28346106 185.00231727 -139 190 C-138.75101418 192.53519593 -138.75101418 192.53519593 -137.75 195.0625 C-137.45609375 195.91972656 -137.1621875 196.77695313 -136.859375 197.66015625 C-136.57578125 198.43230469 -136.2921875 199.20445312 -136 200 C-135.67 200.99 -135.34 201.98 -135 203 C-130.89620302 203.14489234 -126.79306033 203.23393542 -122.6875 203.3125 C-120.93663086 203.3753418 -120.93663086 203.3753418 -119.15039062 203.43945312 C-118.03212891 203.45556641 -116.91386719 203.47167969 -115.76171875 203.48828125 C-114.73006592 203.51446533 -113.69841309 203.54064941 -112.63549805 203.56762695 C-109.78773884 203.25014066 -109.78773884 203.25014066 -108.16699219 200.63500977 C-105.66458045 194.9846897 -106.24665163 189.08067644 -108.3125 183.375 C-111.70327537 178.28883694 -117.1177268 174.55881402 -122 171 C-122.33 171 -122.66 171 -123 171 Z M-159.1875 214.1875 C-167.26554954 217.85008467 -175.48815061 220.54378814 -184 223 C-179.58165013 230.96602491 -174.9537267 238.75306205 -170.0625 246.4375 C-166.253197 252.42354757 -162.4752721 258.42290631 -158.8125 264.5 C-158.43810791 265.11673584 -158.06371582 265.73347168 -157.67797852 266.36889648 C-154.42080424 271.80521499 -153.71183739 276.36989216 -153.25976562 282.59887695 C-153.1929509 283.4772522 -153.12613617 284.35562744 -153.05729675 285.26062012 C-152.9126415 287.16916037 -152.7697708 289.07783651 -152.62846375 290.98662758 C-152.40471405 294.00902883 -152.17639571 297.03105433 -151.94689941 300.05302429 C-151.5429801 305.38191518 -151.14317671 310.71110566 -150.74468994 316.04040527 C-150.10756967 324.56024003 -149.46697899 333.07980567 -148.82121277 341.59898949 C-148.5967583 344.57341579 -148.37572316 347.54808304 -148.15490723 350.52278137 C-148.01682762 352.35284499 -147.87861062 354.18289824 -147.74023438 356.01293945 C-147.67994553 356.83757187 -147.61965668 357.66220428 -147.55754089 358.51182556 C-147.49871231 359.28142609 -147.43988373 360.05102661 -147.37927246 360.84394836 C-147.32987267 361.50558644 -147.28047287 362.16722452 -147.22957611 362.84891224 C-146.93797491 365.58116421 -146.45173037 368.28961778 -146 371 C-133.13 371 -120.26 371 -107 371 C-108.06389537 363.2915828 -108.06389537 363.2915828 -113 358 C-115.92295239 356.66502359 -118.89672017 355.81263391 -122 355 C-124.01728138 354.38761101 -126.02604477 353.74023321 -128 353 C-129.54563424 349.90873152 -129.01141072 346.68719562 -128.90380859 343.3046875 C-128.86187927 341.64623219 -128.82089581 339.98775277 -128.78071594 338.32925415 C-128.75829645 337.44307026 -128.73587696 336.55688637 -128.71277809 335.64384842 C-127.67075897 290.80134801 -126.96086109 251.31739637 -149 211 C-152.90017529 211 -155.72375451 212.57596512 -159.1875 214.1875 Z M-121 238 C-120.57702637 238.98282959 -120.15405273 239.96565918 -119.71826172 240.97827148 C-114.93726165 252.77964447 -114.10207344 263.43110999 -114.125 276.0625 C-114.10681696 277.91213733 -114.08599706 279.76175067 -114.0625 281.61132812 C-114.01139865 286.0745283 -113.9955157 290.53652393 -114 295 C-108.90635286 291.69680875 -104.03198818 288.36008512 -99.4375 284.375 C-94.82014015 280.43495361 -90.06395195 276.73857894 -85.1875 273.125 C-79.81284833 269.1392168 -74.52179796 265.07482779 -69.3125 260.875 C-63.76764057 256.40463664 -58.16883395 252.02338833 -52.51171875 247.6953125 C-47.54790606 243.89428554 -42.62072165 240.04588766 -37.69262695 236.19873047 C-34.13446063 233.4240241 -30.56834854 230.66360655 -26.9609375 227.953125 C-26.04634766 227.26283203 -26.04634766 227.26283203 -25.11328125 226.55859375 C-23.48277291 225.33113242 -21.84703403 224.11062784 -20.2109375 222.890625 C-19.48132813 222.26671875 -18.75171875 221.6428125 -18 221 C-18 220.34 -18 219.68 -18 219 C-28.62237091 218.5563356 -39.24248197 218.22051573 -49.8722887 218.01556873 C-54.81088597 217.91710203 -59.74307291 217.7840621 -64.67797852 217.56665039 C-97.91402308 215.85285466 -97.91402308 215.85285466 -121 238 Z M-189 248 C-190.722117 249.97822671 -192.40168608 251.97138547 -194.0625 254 C-194.53494141 254.57234375 -195.00738281 255.1446875 -195.49414062 255.734375 C-196.66539662 257.15407924 -197.83303398 258.5767674 -199 260 C-197.58711032 263.20207662 -195.87331231 265.31763769 -193.4375 267.8125 C-179.46430166 283.25923561 -173.16957351 302.77812098 -170 323 C-169.01 323 -168.02 323 -167 323 C-167.19549455 318.0611902 -167.41937448 313.12660746 -167.69140625 308.19140625 C-167.91436642 304.11285088 -168.0361327 300.04887304 -168.08984375 295.96484375 C-168.49919131 281.53007912 -172.08522337 272.05707142 -180.41601562 260.31347656 C-182.72799523 256.936732 -184.76240191 253.40842201 -186.80957031 249.86669922 C-187.20241211 249.25068848 -187.59525391 248.63467773 -188 248 C-188.33 248 -188.66 248 -189 248 Z M-323.5390625 275.41015625 C-337.03398338 289.67025306 -344.56118537 307.54174502 -346 327 C-346.05414063 327.6496875 -346.10828125 328.299375 -346.1640625 328.96875 C-347.03930781 349.65636634 -338.39344568 369.87224838 -324.875 385.125 C-310.24823891 400.95204874 -289.76431366 409.94822171 -268.34375 411.03515625 C-245.35608956 410.79346356 -224.15914574 402.41555532 -208 386 C-196.65526006 373.84296887 -187 355.97223705 -187 339 C-189.31 339 -191.62 339 -194 339 C-194.268125 340.19753906 -194.53625 341.39507812 -194.8125 342.62890625 C-199.65188704 363.17191338 -208.34971025 379.09453859 -226.12109375 391.25390625 C-231.22298092 394.34826658 -236.44481567 396.8306397 -242 399 C-242.87398438 399.34160156 -243.74796875 399.68320312 -244.6484375 400.03515625 C-262.731198 405.73573324 -284.05580901 402.87972613 -300.6875 394.4375 C-318.17647039 384.93933644 -330.17067656 368.3068266 -336 349.4375 C-340.58666689 327.69550759 -336.08071865 306.75967554 -324.2734375 288.30078125 C-313.59210504 273.79745542 -297.84142748 264.23019304 -280.34375 260.421875 C-262.77380652 258.20510643 -247.02743136 259.87902587 -231.3046875 268.2421875 C-229.02164439 269.22837992 -229.02164439 269.22837992 -226.7578125 268.3828125 C-224.6292494 266.70834286 -224.35171419 265.63785644 -224 263 C-258.65198623 245.50197575 -294.72058177 248.05476762 -323.5390625 275.41015625 Z M8 257 C8.495 260.465 8.495 260.465 9 264 C9.94875 263.71125 10.8975 263.4225 11.875 263.125 C33.03799194 257.16777412 55.09448917 257.93879766 74.57495117 268.5949707 C91.74934025 278.66037246 102.35076173 294.91857679 107.80859375 313.796875 C112.06668555 333.17853425 108.21225971 353.1810335 98 370 C87.17841055 385.87902616 71.36685634 396.27589751 52.66845703 400.53051758 C31.94248498 404.17699921 12.31851492 399.59604958 -4.9609375 388.015625 C-20.28281518 376.22956525 -28.77248018 360.72645009 -32.61328125 342.01171875 C-35.22709509 321.6556534 -30.63463799 301.96308865 -18.0625 285.5625 C-15.4205345 282.39732173 -12.65310041 279.82135991 -9.4375 277.25 C-7.45314142 275.69359477 -7.45314142 275.69359477 -6 274 C-5.63565145 270.66671388 -5.63565145 270.66671388 -7 268 C-7.66 267.67 -8.32 267.34 -9 267 C-23.21896077 276.84906739 -32.14920182 290.94142626 -38 307 C-38.32226562 307.85335937 -38.64453125 308.70671875 -38.9765625 309.5859375 C-45.11064746 329.13475032 -41.24168319 350.62000268 -32.14135742 368.42138672 C-29.28736331 373.74646573 -25.96296074 378.43569447 -22 383 C-21.236875 384.010625 -20.47375 385.02125 -19.6875 386.0625 C-5.10935656 401.99674981 15.52658168 409.72271827 36.7421875 410.9453125 C58.09192449 411.46243416 78.58751267 402.44299216 94 388 C104.38461243 377.89554797 110.85644896 365.7949931 115 352 C115.23460937 351.22269531 115.46921875 350.44539063 115.7109375 349.64453125 C120.8081576 329.95744203 117.07644082 309.84617032 107.8203125 292.078125 C95.89936244 271.91995193 78.57978595 259.96036102 56.43359375 253.21875 C54.28745817 252.68122801 52.19168521 252.30164309 50 252 C49.05382812 251.86722656 48.10765625 251.73445313 47.1328125 251.59765625 C33.47491762 250.11165057 20.84419765 252.46934124 8 257 Z M-211 275 C-212.63676257 276.9600281 -212.63676257 276.9600281 -214 279 C-212.48195603 282.35363795 -210.50236532 285.03474237 -208.25 287.9375 C-200.37490962 298.72294986 -196.80436133 310.14942659 -194 323 C-191.69 323 -189.38 323 -187 323 C-188.20539624 305.22040547 -196.34937985 287.62437405 -209 275 C-209.66 275 -210.32 275 -211 275 Z M-306.59375 292.328125 C-316.59194881 303.43002108 -322.69180456 318.0518192 -322.3125 333.10546875 C-320.49220975 349.96590722 -313.72096722 363.96903746 -300.62109375 375.00390625 C-288.5377625 383.98397426 -273.89814102 388.64215246 -258.88671875 386.5703125 C-242.99390924 383.70642469 -229.64107095 376.34314173 -220.30957031 363.0324707 C-215.660151 356.03630203 -211 347.60640315 -211 339 C-211.73249466 338.99413376 -212.46498932 338.98826752 -213.21968079 338.98222351 C-220.12081988 338.9243336 -227.02168112 338.85227834 -233.92249775 338.76428509 C-237.47036279 338.71954618 -241.01811208 338.68029829 -244.56616211 338.65356445 C-248.64466541 338.62259374 -252.72254545 338.56780395 -256.80078125 338.51171875 C-258.07585037 338.50532883 -259.35091949 338.4989389 -260.66462708 338.49235535 C-261.84562485 338.47256119 -263.02662262 338.45276703 -264.2434082 338.43237305 C-265.28487503 338.42126999 -266.32634186 338.41016693 -267.39936829 338.39872742 C-270 338 -270 338 -271.83171082 336.71125793 C-273.87936019 333.71195238 -273.60519268 330.43297392 -273 327 C-271.26953125 323.9375 -271.26953125 323.9375 -268.8125 321 C-268.3683374 320.45657959 -267.9241748 319.91315918 -267.46655273 319.35327148 C-266.50212009 318.17654757 -265.52920253 317.00673734 -264.54882812 315.84326172 C-262.39952272 313.28537146 -260.30358857 310.6855229 -258.20263672 308.08789062 C-256.56511731 306.0657321 -254.91962659 304.05025978 -253.2734375 302.03515625 C-248.43202189 296.08948217 -243.7143987 290.04652338 -239 284 C-244.63357575 277.54034704 -253.58743888 276.09766501 -261.8125 275.0625 C-278.85654996 274.18671878 -294.38689523 280.48029537 -306.59375 292.328125 Z M16 280 C17.52362034 285.21325231 19.80996102 289.71868554 22.4375 294.4375 C22.87344482 295.22229736 23.30938965 296.00709473 23.75854492 296.81567383 C27.87742146 304.06486727 32.6401669 310.70648874 37.71728516 317.30615234 C39.87682783 320.15786668 41.9335977 323.08032565 44 326 C42.21371169 327.67277835 40.4214925 329.33824443 38.625 331 C37.86316406 331.71542969 37.86316406 331.71542969 37.0859375 332.4453125 C33.2265625 336 33.2265625 336 31 336 C29.08976334 333.74941619 27.3149574 331.49503198 25.5625 329.125 C25.03188965 328.41118164 24.5012793 327.69736328 23.95458984 326.96191406 C15.47252513 315.36229427 8.05741722 303.03494846 2 290 C-5.26025735 292.81983209 -10.10950958 302.15717467 -13.19140625 309.01953125 C-13.45824219 309.67308594 -13.72507812 310.32664062 -14 311 C-14.29777344 311.66386719 -14.59554688 312.32773437 -14.90234375 313.01171875 C-19.65081989 325.55032166 -18.36526085 341.94905585 -13 354 C-6.11223704 368.25704126 5.21315237 378.2107305 19.765625 384.22265625 C34.2148353 389.24956683 49.40367976 387.72861752 63.1875 381.375 C69.31084018 378.11515047 74.14954508 373.91999549 79 369 C79.57492187 368.43539062 80.14984375 367.87078125 80.7421875 367.2890625 C89.86927372 357.59448905 93.96184942 344.08310184 94.375 331 C93.86851913 315.58272233 88.04754281 302.33808516 77.375 291.21484375 C61.93985601 276.82055651 35.69084448 268.69140418 16 280 Z M-226 294 C-226.9079166 294.99703257 -227.7751532 296.03115465 -228.625 297.078125 C-229.43191284 298.06993774 -229.43191284 298.06993774 -230.25512695 299.08178711 C-230.83093506 299.79729736 -231.40674316 300.51280762 -232 301.25 C-232.58289795 301.97131104 -233.1657959 302.69262207 -233.76635742 303.43579102 C-242.5148011 312.63820856 -242.5148011 312.63820856 -248 323 C-235.79 323 -223.58 323 -211 323 C-213.99320208 311.02719169 -216.65414115 302.72521607 -225 294 C-225.33 294 -225.66 294 -226 294 Z "
    fill="currentColor" transform="translate(370,45)" />
  <path d="M0 0 C34.32 0 68.64 0 104 0 C104 5.28 104 10.56 104 16 C69.68 16 35.36 16 0 16 C0 10.72 0 5.44 0 0 Z "
    fill="currentColor" transform="translate(8,224)" />
  <path d="M0 0 C31.68 0 63.36 0 96 0 C96 5.28 96 10.56 96 16 C64.32 16 32.64 16 0 16 C0 10.72 0 5.44 0 0 Z "
    fill="currentColor" transform="translate(104,72)" />
  <path d="M0 0 C26.4 0 52.8 0 80 0 C80 5.28 80 10.56 80 16 C53.6 16 27.2 16 0 16 C0 10.72 0 5.44 0 0 Z "
    fill="currentColor" transform="translate(56,104)" />
  <path d="M0 0 C15.84 0 31.68 0 48 0 C48 5.28 48 10.56 48 16 C32.16 16 16.32 16 0 16 C0 10.72 0 5.44 0 0 Z "
    fill="currentColor" transform="translate(8,192)" />
</svg>